<svg width="391" height="348" viewBox="0 0 391 348" fill="none" xmlns="http://www.w3.org/2000/svg">
<g clip-path="url(#clip0_28_8516)">
<path d="M213.655 336.947H96.973C91.7812 336.947 91.7722 328.882 96.973 328.882H213.655C218.846 328.882 218.855 336.947 213.655 336.947Z" fill="#FFC334"/>
<path d="M26.4167 407.985L-45.3126 336.247L-55.6687 325.891C-59.3056 322.254 -53.6411 316.508 -49.9678 320.19L21.7523 391.91L32.1175 402.266C35.7908 405.958 30.0899 411.659 26.4167 407.985Z" fill="#FFC334"/>
<path d="M31.2355 440.236L-73.026 335.974L-87.1463 321.863L-190.799 425.515L-205.555 440.272C-209.192 443.909 -214.93 438.254 -211.256 434.571L-106.968 330.273L-92.2108 315.516C-88.8519 315.032 -85.4408 315.032 -82.0819 315.516L22.1796 419.778L36.9364 434.535C40.6097 438.208 34.9088 443.918 31.2355 440.236Z" fill="#FFC334"/>
<path d="M-101.785 352.531L-89.9649 340.711C-89.2014 339.97 -88.1789 339.555 -87.1145 339.555C-86.0501 339.555 -85.0276 339.97 -84.264 340.711L-1.06033 423.924L10.887 435.862L11.7416 436.726C12.4826 437.488 12.8971 438.509 12.8971 439.572C12.8971 440.635 12.4826 441.656 11.7416 442.418L8.42294 445.746C8.04862 446.12 7.60423 446.417 7.11515 446.62C6.62607 446.822 6.10187 446.926 5.5725 446.926C5.04312 446.926 4.51895 446.822 4.02987 446.62C3.54079 446.417 3.0964 446.12 2.72208 445.746C2.34775 445.371 2.05081 444.927 1.84822 444.438C1.64564 443.949 1.54136 443.425 1.54136 442.895C1.54136 442.366 1.64564 441.842 1.84822 441.353C2.05081 440.864 2.34775 440.419 2.72208 440.045C2.87665 439.881 3.0312 439.727 3.19487 439.572L-78.0267 358.36L-87.119 349.267L-168.486 430.634L-180.306 442.454C-183.943 446.091 -189.68 440.436 -186.007 436.763L-101.785 352.531Z" fill="#FFC334"/>
<path d="M173.421 276.32L163.065 286.676C159.428 290.313 153.691 284.648 157.364 280.975L229.093 209.255L239.449 198.899C243.086 195.262 248.824 200.917 245.15 204.59L173.421 276.32Z" fill="#FFC334"/>
<path d="M213.655 94.4824H96.973C91.7812 94.4824 91.7722 86.4266 96.973 86.4266H213.655C218.846 86.4266 218.855 94.4824 213.655 94.4824Z" fill="#FFC334"/>
<path d="M266.026 139.098V197.898C266.026 203.081 257.97 203.09 257.97 197.898V139.098C257.97 133.916 266.026 133.907 266.026 139.098Z" fill="#FFC334"/>
<path d="M44.6013 197.898V139.098C44.6013 133.907 52.6661 133.907 52.6661 139.098V197.898C52.6661 203.081 44.6013 203.09 44.6013 197.898Z" fill="#FFC334"/>
<path d="M220.783 113.886H72.06V201.835C72.06 207.027 63.9951 207.036 63.9951 201.835V112.731C63.9637 111.827 64.2633 110.944 64.8376 110.245C65.4118 109.547 66.2213 109.083 67.1138 108.939C67.2554 108.046 67.7193 107.235 68.4179 106.661C69.1165 106.086 70.0014 105.787 70.9053 105.821H239.722C240.626 105.787 241.511 106.086 242.21 106.661C242.908 107.235 243.372 108.046 243.514 108.939C244.408 109.079 245.22 109.542 245.795 110.241C246.37 110.94 246.668 111.826 246.632 112.731V201.835C246.632 207.027 238.567 207.036 238.567 201.835V113.886H220.783Z" fill="#FFC334"/>
<path d="M150.318 280.393H160.019C165.202 280.393 165.211 288.458 160.019 288.458H150.318C145.126 288.458 145.117 280.393 150.318 280.393Z" fill="#FFC334"/>
<path d="M143.044 260.999H167.593C172.776 260.999 172.785 269.055 167.593 269.055H143.044C137.852 269.055 137.843 260.999 143.044 260.999Z" fill="#FFC334"/>
<path d="M104.283 133.279H91.4539V209.409C91.4539 214.601 83.3981 214.61 83.3981 209.409V129.251C83.4122 128.187 83.8408 127.169 84.5929 126.416C85.345 125.662 86.3613 125.231 87.426 125.214H223.201C224.267 125.231 225.284 125.662 226.038 126.415C226.791 127.169 227.222 128.186 227.238 129.251V209.418C227.238 214.601 219.174 214.61 219.174 209.418V133.279H104.283Z" fill="#FFC334"/>
<path d="M131.224 241.596H179.413C184.596 241.596 184.605 249.661 179.413 249.661H131.224C126.032 249.661 126.023 241.596 131.224 241.596Z" fill="#FFC334"/>
<path d="M110.857 152.673V221.229C110.857 226.421 102.792 226.43 102.792 221.229V148.645C102.806 147.581 103.235 146.565 103.987 145.813C104.74 145.06 105.756 144.632 106.82 144.617H203.808C204.871 144.632 205.888 145.06 206.64 145.813C207.392 146.565 207.821 147.581 207.836 148.645V221.229C207.836 226.421 199.78 226.43 199.78 221.229V152.673H110.857Z" fill="#FFC334"/>
<path d="M122.186 226.23V168.039C122.17 167.535 122.258 167.032 122.444 166.563C122.63 166.094 122.911 165.668 123.268 165.311C123.308 165.261 123.35 165.212 123.395 165.166L123.477 165.093C123.834 164.736 124.26 164.455 124.729 164.267C125.198 164.079 125.7 163.989 126.205 164.002H184.396C185.459 164.019 186.474 164.448 187.225 165.2C187.977 165.952 188.407 166.967 188.423 168.03V226.221C188.409 227.286 187.981 228.303 187.229 229.057C186.477 229.81 185.46 230.241 184.396 230.258H126.205C125.143 230.239 124.13 229.808 123.381 229.057C122.631 228.305 122.202 227.292 122.186 226.23ZM130.251 222.202H180.377V172.076H130.251V222.202Z" fill="#FFC334"/>
<path d="M165.011 210.864H145.617C144.553 210.85 143.537 210.421 142.784 209.669C142.032 208.916 141.603 207.9 141.589 206.836V187.442C141.574 186.939 141.662 186.437 141.846 185.968C142.03 185.5 142.308 185.073 142.662 184.715L142.789 184.578L142.871 184.505C143.226 184.145 143.652 183.862 144.121 183.673C144.59 183.483 145.093 183.392 145.599 183.405H165.011C166.077 183.419 167.096 183.849 167.85 184.603C168.604 185.357 169.034 186.376 169.048 187.442V206.836C169.034 207.902 168.603 208.919 167.849 209.672C167.095 210.424 166.076 210.852 165.011 210.864ZM160.983 202.808V191.47H149.645V202.808H160.983Z" fill="#FFC334"/>
<path d="M34.0815 207.654C78.1155 208.018 118.285 234.24 135.833 274.728C135.906 274.901 135.943 275.065 135.997 275.228C136.087 275.377 136.166 275.532 136.234 275.692C141.93 289.462 144.841 304.225 144.798 319.126C144.798 324.309 136.715 324.318 136.734 319.126C136.728 305.153 133.978 291.316 128.641 278.402C120.628 259.929 107.431 244.177 90.6479 233.051C73.8648 221.926 54.2161 215.906 34.0815 215.719C-22.2909 216.156 -68.7617 262.554 -68.5616 319.126C-68.5616 324.318 -76.6083 324.318 -76.6265 319.126C-76.8447 258.171 -26.6643 208.127 34.0815 207.654Z" fill="#FFC334"/>
<path d="M34.0814 227.048C35.0725 227.048 36.0635 227.048 37.0546 227.103C61.4739 228.191 84.4665 238.913 100.997 256.919C117.528 274.926 126.249 298.749 125.25 323.172C125.041 328.346 116.976 328.373 117.194 323.172C119.076 276.883 83.6527 237.168 37.0364 235.159C36.0454 235.159 35.0543 235.113 34.0632 235.113C-13.6077 235.568 -51.2317 275.71 -49.0587 323.227C-48.8223 328.419 -56.878 328.409 -57.1144 323.227C-59.4693 271.319 -17.7993 227.548 34.0814 227.048Z" fill="#FFC334"/>
<path d="M34.0814 246.451C79.4066 247.006 112.494 288.14 104.611 332.465C103.701 337.556 95.9364 335.401 96.8366 330.319C98.4696 321.101 98.0784 311.639 95.6901 302.587C93.3018 293.536 88.9735 285.112 83.0054 277.9C77.0372 270.688 69.5719 264.861 61.1271 260.821C52.6823 256.782 43.46 254.627 34.0996 254.507C-5.55196 254.998 -35.5384 290.995 -28.6919 330.128C-27.7826 335.201 -35.5657 337.402 -36.4658 332.274C-44.2306 288.003 -11.1619 247.006 34.0814 246.451Z" fill="#FFC334"/>
<path d="M34.0815 265.845C45.5248 265.965 56.6352 269.712 65.8136 276.547C65.95 276.656 66.0591 276.774 66.1864 276.883C66.3137 276.992 66.4864 277.065 66.6319 277.174C83.1981 290.531 90.572 312.843 84.4256 333.374C81.7303 342.246 76.7539 350.256 69.9937 356.603C63.2335 362.95 54.9261 367.412 45.9015 369.543C5.79528 378.635 -29.9921 338.211 -14.9716 299.532C-7.05216 279.229 12.4509 266.236 34.0815 265.845ZM-3.19701 342.612C15.4695 371.498 60.0309 368.07 74.4695 337.029C83.2891 318.071 77.1154 296.177 61.2947 283.175C53.4271 277.295 43.9024 274.053 34.0815 273.91C-0.414764 274.501 -22.2363 313.152 -3.19701 342.612Z" fill="#FFC334"/>
<path d="M34.0814 285.239C47.9745 285.63 60.3491 293.868 65.2044 307.061C67.4969 313.478 67.7672 320.444 65.9789 327.02C64.1907 333.596 60.4297 339.466 55.2029 343.839C31.8356 363.124 -3.81531 342.193 1.50369 312.407C4.3405 296.568 18.2972 285.685 34.0814 285.239ZM34.0814 343.43C40.7106 343.373 47.0522 340.715 51.7407 336.028C56.4292 331.341 59.0896 325.001 59.1489 318.372C59.1489 304.415 47.7472 293.686 34.0814 293.304C20.443 293.686 9.02302 304.415 9.02302 318.372C9.08467 324.998 11.7445 331.336 16.4306 336.022C21.1167 340.708 27.4546 343.368 34.0814 343.43Z" fill="#FFC334"/>
<path d="M32.8813 304.76C33.2729 304.659 33.6777 304.62 34.0815 304.642C34.4817 304.621 34.8829 304.658 35.2725 304.751C42.1827 305.66 47.8109 311.025 47.8109 318.39C47.7692 321.955 46.3413 325.364 43.8297 327.894C41.3181 330.425 37.92 331.878 34.3553 331.947C30.7906 332.016 27.3391 330.694 24.7321 328.262C22.125 325.829 20.5672 322.478 20.3884 318.917C20.052 311.352 25.8074 305.688 32.8813 304.76ZM34.0815 324.036C41.419 324.036 41.3553 313.125 34.0815 312.698C26.8076 313.089 26.7621 324.036 34.0815 324.036Z" fill="#FFC334"/>
<path d="M26.4167 165.53L-45.3126 93.8006L-55.6687 83.4808C-59.3056 79.8439 -53.6411 74.1066 -49.9678 77.7799L21.7523 149.5L32.1175 159.856C35.7908 163.493 30.0899 169.203 26.4167 165.53Z" fill="#FFC334"/>
<path d="M-211.229 192.079L-106.968 87.8178L-92.2108 73.0609C-88.8528 72.5633 -85.4398 72.5633 -82.0819 73.0609L22.1796 177.322L36.9365 192.079C40.5734 195.716 34.9089 201.453 31.2356 197.78L-73.0259 93.4823L-87.1463 79.3619L-190.799 183.014L-205.555 197.771C-209.201 201.453 -214.902 195.753 -211.229 192.079Z" fill="#FFC334"/>
<path d="M-101.785 110.067L-89.9649 98.2467C-89.2002 97.5073 -88.1782 97.094 -87.1145 97.094C-86.0508 97.094 -85.0287 97.5073 -84.264 98.2467L-1.06031 181.46L10.887 193.407L11.7417 194.262C12.4832 195.025 12.8979 196.048 12.8979 197.112C12.8979 198.176 12.4832 199.199 11.7417 199.962L8.42297 203.281C7.66698 204.037 6.64164 204.462 5.57252 204.462C4.5034 204.462 3.47808 204.037 2.7221 203.281C1.96611 202.525 1.54139 201.5 1.54139 200.431C1.54139 199.362 1.96611 198.336 2.7221 197.58L3.16761 197.135L-78.054 115.922L-87.1463 106.83L-168.513 188.197L-180.333 200.017C-183.97 203.654 -189.708 197.989 -186.034 194.316L-101.785 110.067Z" fill="#FFC334"/>
<path d="M388.772 284.284C388.811 283.643 388.985 283.018 389.283 282.449C389.58 281.88 389.995 281.381 390.5 280.984V287.521C389.957 287.176 389.513 286.697 389.21 286.13C388.908 285.563 388.757 284.927 388.772 284.284Z" fill="#FFC334"/>
<path d="M173.421 33.8549L163.065 44.2202C159.428 47.8571 153.691 42.1926 157.364 38.5193L229.093 -33.21L239.449 -43.5661C243.086 -47.203 248.824 -41.5385 245.15 -37.8652L173.421 33.8549Z" fill="#FFC334"/>
<path d="M320.544 73.061C321.285 73.8246 321.7 74.8471 321.7 75.9115C321.7 76.9758 321.285 77.9983 320.544 78.7619L279.392 119.905C278.63 120.646 277.609 121.06 276.546 121.06C275.483 121.06 274.462 120.646 273.7 119.905L232.548 78.7619C232.178 78.4114 231.883 77.9884 231.683 77.5191C231.483 77.0498 231.381 76.5444 231.385 76.0342C231.38 75.9798 231.38 75.925 231.385 75.8706C231.38 75.8252 231.38 75.7795 231.385 75.7342C231.38 75.2238 231.481 74.7181 231.681 74.2486C231.882 73.7792 232.177 73.3563 232.548 73.0065L273.7 31.8547C274.462 31.1137 275.483 30.6992 276.546 30.6992C277.609 30.6992 278.63 31.1137 279.392 31.8547L320.544 73.061ZM241.104 75.9069L276.564 111.367L312.024 75.9069L276.564 40.4469L241.104 75.9069Z" fill="#FFC334"/>
<path d="M293.112 78.7618L279.392 92.473C278.63 93.2139 277.609 93.6285 276.546 93.6285C275.483 93.6285 274.462 93.2139 273.7 92.473L259.98 78.7618C259.609 78.4113 259.315 77.9883 259.114 77.519C258.914 77.0497 258.813 76.5443 258.816 76.0341C258.812 75.9797 258.812 75.9249 258.816 75.8705C258.812 75.8251 258.812 75.7794 258.816 75.7341C258.811 75.2237 258.912 74.718 259.113 74.2485C259.313 73.7791 259.608 73.3562 259.98 73.0064L273.7 59.2861C274.462 58.5451 275.483 58.1306 276.546 58.1306C277.609 58.1306 278.63 58.5451 279.392 59.2861L293.112 73.0064C293.87 73.7724 294.295 74.8065 294.295 75.8841C294.295 76.9617 293.87 77.9958 293.112 78.7618ZM276.546 67.8965L268.527 75.9068L276.546 83.9262L284.565 75.9068L276.546 67.8965Z" fill="#FFC334"/>
<path d="M150.318 37.9283H160.019C165.202 37.9283 165.211 45.9932 160.019 45.9932H150.318C145.126 45.9932 145.117 37.9283 150.318 37.9283Z" fill="#FFC334"/>
<path d="M143.044 18.5344H167.593C172.776 18.5344 172.785 26.5993 167.593 26.5993H143.044C137.852 26.5993 137.843 18.5344 143.044 18.5344Z" fill="#FFC334"/>
<path d="M131.224 -0.859497H179.413C184.596 -0.859497 184.605 7.19629 179.413 7.19629H131.224C126.032 7.19629 126.023 -0.859497 131.224 -0.859497Z" fill="#FFC334"/>
<path d="M34.0815 -34.8102C78.1155 -34.4374 118.285 -8.22427 135.833 32.2638C135.906 32.4365 135.943 32.6002 135.997 32.7729C136.087 32.9186 136.166 33.0706 136.234 33.2276C141.93 46.9976 144.841 61.7599 144.798 76.6615C144.798 81.8532 136.715 81.8623 136.734 76.6615C136.727 62.688 133.978 48.8516 128.641 35.9371C120.627 17.4654 107.43 1.71334 90.6469 -9.41173C73.8641 -20.5368 54.2159 -26.5577 34.0815 -26.7453C-22.2909 -26.3089 -68.7617 20.0892 -68.5616 76.6615C-68.5616 81.8532 -76.6083 81.8623 -76.6265 76.6615C-76.8447 15.7067 -26.6643 -34.3374 34.0815 -34.8102Z" fill="#FFC334"/>
<path d="M29.117 159.02C30.2718 159.083 31.4356 159.129 32.5994 159.147C34.6724 159.147 36.7364 159.147 38.8095 159.038C39.8762 159.043 40.898 159.469 41.6523 160.223C42.4066 160.977 42.8326 161.999 42.8373 163.066C42.8212 164.132 42.3928 165.151 41.6419 165.909C40.891 166.667 39.8759 167.104 38.8095 167.13C36.7364 167.23 34.6724 167.266 32.5994 167.239C31.4356 167.239 30.2718 167.176 29.117 167.112C27.0167 166.994 24.98 165.339 25.0801 163.084C25.1801 160.965 26.8622 158.947 29.117 159.02Z" fill="#FFC334"/>
<path d="M34.0814 -15.4072C35.0725 -15.4072 36.0635 -15.4072 37.0546 -15.3618C61.4739 -14.2732 84.4665 -3.55167 100.997 14.4547C117.528 32.461 126.249 56.2845 125.25 80.7076C125.041 85.8811 116.976 85.9084 117.194 80.7076C119.076 34.4186 83.6527 -5.28748 37.0364 -7.29688C36.0454 -7.29688 35.0543 -7.29688 34.0632 -7.35144C-13.6077 -6.89682 -51.2317 33.2457 -49.0587 80.7712C-48.8223 85.9539 -56.878 85.9448 -57.1144 80.7712C-59.4693 28.8541 -17.7993 -14.9162 34.0814 -15.4072Z" fill="#FFC334"/>
<path d="M22.1069 138.653C30.0638 140.103 38.2173 140.103 46.1742 138.653C51.2477 137.744 53.4481 145.499 48.3109 146.427C38.9395 148.15 29.3325 148.15 19.9611 146.427C14.8694 145.509 17.0243 137.744 22.1069 138.653Z" fill="#FFC334"/>
<path d="M34.0814 3.98669C79.4066 4.54133 112.494 45.6749 104.611 89.9999C103.701 95.1007 95.9364 92.9368 96.8366 87.8542C98.4681 78.6372 98.0758 69.1757 95.6868 60.1254C93.2979 51.0751 88.9693 42.6526 83.0013 35.4417C77.0333 28.2308 69.5686 22.404 61.1245 18.3651C52.6805 14.3262 43.4591 12.1719 34.0996 12.0516C-5.55196 12.5335 -35.5384 48.5299 -28.6919 87.6723C-27.7826 92.7458 -35.5657 94.9462 -36.4658 89.809C-44.2306 45.5476 -11.1619 4.54133 34.0814 3.98669Z" fill="#FFC334"/>
<path d="M34.0815 23.3806C45.5233 23.5087 56.6311 27.2548 65.8136 34.0823C65.95 34.1914 66.0591 34.3096 66.1864 34.4278C66.341 34.5151 66.4898 34.6123 66.6319 34.7187C83.1981 48.0662 90.572 70.3788 84.4256 90.9092C81.7371 99.7901 76.7637 107.809 70.003 114.165C63.2424 120.52 54.9314 124.989 45.9015 127.124C5.79528 136.216 -29.9921 95.8009 -14.9716 57.1131C-7.05216 36.7645 12.4509 23.7534 34.0815 23.3806ZM-3.19701 100.156C15.4695 129.042 60.0309 125.615 74.4695 94.5825C83.2891 75.625 77.1154 53.7308 61.2947 40.7197C53.4261 34.8406 43.9027 31.595 34.0815 31.4455C-0.414764 32.0365 -22.2363 70.6879 -3.19701 100.156Z" fill="#FFC334"/>
<path d="M34.0814 42.7836C47.9745 43.1654 60.3491 51.4031 65.2044 64.6051C67.4982 71.0226 67.7692 77.9891 65.9809 84.5654C64.1925 91.1416 60.4308 97.0115 55.2029 101.384C31.8357 120.668 -3.81529 99.7378 1.50371 69.9605C4.34051 54.1035 18.2972 43.22 34.0814 42.7836ZM34.0814 100.974C40.7114 100.915 47.053 98.255 51.7413 93.5667C56.4296 88.8784 59.0896 82.5368 59.149 75.9068C59.149 61.9502 47.7472 51.2212 34.0814 50.8394C20.443 51.2212 9.02304 61.9592 9.02304 75.9068C9.08465 82.5345 11.7442 88.8734 16.43 93.561C21.1159 98.2485 27.4538 100.91 34.0814 100.974Z" fill="#FFC334"/>
<path d="M32.8813 62.2957C33.2736 62.1992 33.6778 62.1594 34.0815 62.1775C34.4822 62.1545 34.8841 62.1943 35.2725 62.2957C42.1827 63.2049 47.8109 68.5693 47.8109 75.9341C47.7692 79.4993 46.3413 82.9082 43.8297 85.4388C41.3181 87.9694 37.92 89.423 34.3553 89.4915C30.7906 89.5601 27.3391 88.2383 24.7321 85.8061C22.125 83.3739 20.5672 80.0224 20.3884 76.4615C20.052 68.933 25.8074 63.2231 32.8813 62.2957ZM34.0815 81.5713C41.419 81.5713 41.3553 70.6606 34.0815 70.2423C26.8076 70.6333 26.7621 81.5713 34.0815 81.5713Z" fill="#FFC334"/>
<path d="M388.772 41.8198C388.811 41.1788 388.985 40.5534 389.283 39.9845C389.58 39.4156 389.995 38.9162 390.5 38.5193V45.0567C389.956 44.7132 389.511 44.2342 389.208 43.6667C388.905 43.0993 388.755 42.4628 388.772 41.8198Z" fill="#FFC334"/>
<path d="M385.799 17.4251C387.363 17.7069 388.927 17.9161 390.5 18.0888V26.1355C388.227 25.9173 385.954 25.6172 383.653 25.2263C378.562 24.2807 380.717 16.5068 385.799 17.4251Z" fill="#FFC334"/>
</g>
<defs>
<clipPath id="clip0_28_8516">
<rect width="727.385" height="549.211" fill="white" transform="matrix(-1 0 0 1 390.5 -15.0706)"/>
</clipPath>
</defs>
</svg>
