<svg width="38" height="39" viewBox="0 0 38 39" fill="none" xmlns="http://www.w3.org/2000/svg">
<rect y="0.5" width="38" height="38" rx="19" fill="white" fill-opacity="0.2"/>
<path d="M12.16 14.8349C13.36 14.8349 14.32 13.8599 14.32 12.6749C14.32 11.4899 13.345 10.5149 12.16 10.5149C10.975 10.5149 10 11.4899 10 12.6749C10 13.8599 10.975 14.8349 12.16 14.8349ZM16.375 16.4699V28.4999H20.095V22.5599C20.095 20.9849 20.395 19.4699 22.33 19.4699C24.265 19.4699 24.265 21.2699 24.265 22.6499V28.4999H28V21.8999C28 18.6599 27.31 16.1699 23.53 16.1699C21.715 16.1699 20.5 17.1599 20.005 18.1049H19.96V16.4549H16.39L16.375 16.4699ZM10.3 16.4699H14.035V28.4999H10.3V16.4699Z" fill="white"/>
</svg>
