<svg width="38" height="39" viewBox="0 0 38 39" fill="none" xmlns="http://www.w3.org/2000/svg">
<rect y="0.5" width="38" height="38" rx="19" fill="white" fill-opacity="0.2"/>
<path d="M17 22.5L22.19 19.5L17 16.5V22.5ZM28.56 14.67C28.69 15.14 28.78 15.77 28.84 16.57C28.91 17.37 28.94 18.06 28.94 18.66L29 19.5C29 21.69 28.84 23.3 28.56 24.33C28.31 25.23 27.73 25.81 26.83 26.06C26.36 26.19 25.5 26.28 24.18 26.34C22.88 26.41 21.69 26.44 20.59 26.44L19 26.5C14.81 26.5 12.2 26.34 11.17 26.06C10.27 25.81 9.69 25.23 9.44 24.33C9.31 23.86 9.22 23.23 9.16 22.43C9.09 21.63 9.06 20.94 9.06 20.34L9 19.5C9 17.31 9.16 15.7 9.44 14.67C9.69 13.77 10.27 13.19 11.17 12.94C11.64 12.81 12.5 12.72 13.82 12.66C15.12 12.59 16.31 12.56 17.41 12.56L19 12.5C23.19 12.5 25.8 12.66 26.83 12.94C27.73 13.19 28.31 13.77 28.56 14.67Z" fill="white"/>
</svg>
