<svg width="40" height="41" viewBox="0 0 40 41" fill="none" xmlns="http://www.w3.org/2000/svg">
<path d="M8.33333 15.5371C9.21739 15.5371 10.0652 15.1859 10.6904 14.5608C11.3155 13.9357 11.6667 13.0878 11.6667 12.2038C11.6667 11.3197 11.3155 10.4719 10.6904 9.84676C10.0652 9.22164 9.21739 8.87045 8.33333 8.87045C7.44928 8.87045 6.60143 9.22164 5.97631 9.84676C5.35119 10.4719 5 11.3197 5 12.2038C5 13.0878 5.35119 13.9357 5.97631 14.5608C6.60143 15.1859 7.44928 15.5371 8.33333 15.5371ZM8.33333 15.5371V17.2038V15.5371ZM8.33333 28.8705V27.2038V28.8705ZM11.6667 32.2038C11.6667 31.3197 11.3155 30.4719 10.6904 29.8468C10.0652 29.2216 9.21739 28.8705 8.33333 28.8705C7.44928 28.8705 6.60143 29.2216 5.97631 29.8468C5.35119 30.4719 5 31.3197 5 32.2038C5 33.0878 5.35119 33.9357 5.97631 34.5608C6.60143 35.1859 7.44928 35.5371 8.33333 35.5371C9.21739 35.5371 10.0652 35.1859 10.6904 34.5608C11.3155 33.9357 11.6667 33.0878 11.6667 32.2038ZM11.6667 32.2038H13.3333H11.6667ZM28.3333 28.8705C28.9926 28.8705 29.6371 29.066 30.1852 29.4322C30.7334 29.7985 31.1606 30.3191 31.4129 30.9282C31.6652 31.5373 31.7312 32.2075 31.6026 32.8541C31.474 33.5007 31.1565 34.0946 30.6904 34.5608C30.2242 35.027 29.6302 35.3445 28.9836 35.4731C28.337 35.6017 27.6668 35.5357 27.0577 35.2834C26.4486 35.0311 25.928 34.6039 25.5618 34.0557C25.1955 33.5075 25 32.8631 25 32.2038M28.3333 28.8705C27.4493 28.8705 26.6014 29.2216 25.9763 29.8468C25.3512 30.4719 25 31.3197 25 32.2038M28.3333 28.8705V27.2038V28.8705ZM25 32.2038H23.3333H25Z" fill="#FFC334"/>
<path d="M8.33333 15.5371C9.21739 15.5371 10.0652 15.1859 10.6904 14.5608C11.3155 13.9357 11.6667 13.0878 11.6667 12.2038C11.6667 11.3197 11.3155 10.4719 10.6904 9.84676C10.0652 9.22164 9.21739 8.87045 8.33333 8.87045C7.44928 8.87045 6.60143 9.22164 5.97631 9.84676C5.35119 10.4719 5 11.3197 5 12.2038C5 13.0878 5.35119 13.9357 5.97631 14.5608C6.60143 15.1859 7.44928 15.5371 8.33333 15.5371ZM8.33333 15.5371V17.2038M8.33333 28.8705V27.2038M8.33333 28.8705C9.21739 28.8705 10.0652 29.2216 10.6904 29.8468C11.3155 30.4719 11.6667 31.3197 11.6667 32.2038M8.33333 28.8705C7.44928 28.8705 6.60143 29.2216 5.97631 29.8468C5.35119 30.4719 5 31.3197 5 32.2038C5 33.0878 5.35119 33.9357 5.97631 34.5608C6.60143 35.1859 7.44928 35.5371 8.33333 35.5371C9.21739 35.5371 10.0652 35.1859 10.6904 34.5608C11.3155 33.9357 11.6667 33.0878 11.6667 32.2038M11.6667 32.2038H13.3333M28.3333 28.8705C28.9926 28.8705 29.6371 29.066 30.1852 29.4322C30.7334 29.7985 31.1606 30.3191 31.4129 30.9282C31.6652 31.5373 31.7312 32.2075 31.6026 32.8541C31.474 33.5007 31.1565 34.0946 30.6904 34.5608C30.2242 35.027 29.6302 35.3445 28.9836 35.4731C28.337 35.6017 27.6668 35.5357 27.0577 35.2834C26.4486 35.0311 25.928 34.6039 25.5618 34.0557C25.1955 33.5075 25 32.8631 25 32.2038M28.3333 28.8705C27.4493 28.8705 26.6014 29.2216 25.9763 29.8468C25.3512 30.4719 25 31.3197 25 32.2038M28.3333 28.8705V27.2038M25 32.2038H23.3333" stroke="#FFC334" stroke-width="2" stroke-linecap="round" stroke-linejoin="round"/>
<path d="M8.33335 23.8704C9.25383 23.8704 10 23.1243 10 22.2038C10 21.2833 9.25383 20.5371 8.33335 20.5371C7.41288 20.5371 6.66669 21.2833 6.66669 22.2038C6.66669 23.1243 7.41288 23.8704 8.33335 23.8704Z" fill="#FFC334"/>
<path d="M18.3334 33.8704C19.2538 33.8704 20 33.1242 20 32.2038C20 31.2833 19.2538 30.5371 18.3334 30.5371C17.4129 30.5371 16.6667 31.2833 16.6667 32.2038C16.6667 33.1242 17.4129 33.8704 18.3334 33.8704Z" fill="#FFC334"/>
<path d="M35 12.2038C35 16.5554 28.3334 22.2038 28.3334 22.2038C28.3334 22.2038 21.6667 16.5554 21.6667 12.2038C21.6667 7.85211 24.65 5.53711 28.3334 5.53711C32.0167 5.53711 35 7.85211 35 12.2038Z" stroke="#FFC334" stroke-width="2" stroke-linecap="round" stroke-linejoin="round"/>
<path d="M28.3333 15.5371C30.1743 15.5371 31.6667 14.0447 31.6667 12.2038C31.6667 10.3628 30.1743 8.87045 28.3333 8.87045C26.4924 8.87045 25 10.3628 25 12.2038C25 14.0447 26.4924 15.5371 28.3333 15.5371Z" fill="#FFC334"/>
</svg>
