<svg width="41" height="41" viewBox="0 0 41 41" fill="none" xmlns="http://www.w3.org/2000/svg">
<path d="M34.8333 31.4967L28.7702 25.4336L28.4719 25.1352L28.1277 25.3791C27.5059 25.8195 26.8263 26.1502 26.0867 26.3714C25.3412 26.5944 24.5908 26.7048 23.834 26.7038H23.8333C21.66 26.7038 19.8223 25.9434 18.292 24.412C16.7615 22.8804 16.0011 21.0426 16 18.8702C16.0001 16.6969 16.7605 14.8594 18.2918 13.3291C19.8233 11.7987 21.6611 11.0382 23.8333 11.0371L34.8333 31.4967ZM34.8333 31.4967L36.4596 29.8704M34.8333 31.4967L36.4596 29.8704M36.4596 29.8704L30.3965 23.8073L30.0982 23.5091L30.3419 23.1649C30.7811 22.5444 31.1113 21.8648 31.3326 21.124C31.5558 20.377 31.6667 19.6263 31.6667 18.8704V18.8702C31.6677 16.6981 30.9079 14.8605 29.3765 13.329C27.845 11.7976 26.0069 11.0372 23.8336 11.0371L36.4596 29.8704ZM4.33334 31.7038V29.3704H20V31.7038H4.33334ZM4.33334 23.3704V21.0371H11.6667V23.3704H4.33334ZM4.33334 15.0371V12.7038H11.6667V15.0371H4.33334ZM23.8333 24.3704C25.3533 24.3704 26.6615 23.8327 27.7286 22.7657C28.7956 21.6986 29.3333 20.3904 29.3333 18.8704C29.3333 17.3505 28.7956 16.0423 27.7286 14.9752C26.6615 13.9082 25.3533 13.3704 23.8333 13.3704C22.3134 13.3704 21.0052 13.9082 19.9381 14.9752C18.8711 16.0423 18.3333 17.3505 18.3333 18.8704C18.3333 20.3904 18.8711 21.6986 19.9381 22.7657C21.0052 23.8327 22.3134 24.3704 23.8333 24.3704Z" fill="#FFC334" stroke="#FFC334"/>
</svg>
