<svg width="34" height="27" viewBox="0 0 34 27" fill="none" xmlns="http://www.w3.org/2000/svg">
<path d="M17 2.91744H17.0005C18.0411 2.91859 19.0732 3.04164 20.0962 3.28614C21.0295 3.50921 21.9327 3.83421 22.8051 4.26055L25.075 2.8269C23.9723 2.14485 22.8093 1.61937 21.5853 1.24939C20.1195 0.806316 18.5918 0.584129 17.0002 0.584106L17 2.91744ZM17 2.91744C13.1738 2.91744 9.90023 4.26842 7.20809 6.96055M17 2.91744L7.20809 6.96055M5.21252 23.9174L5.06788 23.669C4.46391 22.6317 3.99647 21.523 3.66529 20.3444C3.33311 19.1621 3.16666 17.9639 3.16665 16.7509L5.21252 23.9174ZM5.21252 23.9174H5.49998M5.21252 23.9174H5.49998M5.49998 23.9174H28.5H28.7818M5.49998 23.9174H28.7818M28.7818 23.9174L28.9277 23.6763L28.7818 23.9174ZM7.20809 6.96055C4.51599 9.65266 3.16553 12.9256 3.16665 16.7508L7.20809 6.96055ZM18.9173 18.8068L18.9171 18.807C18.5251 19.3959 17.9165 19.7192 16.9937 19.7308C16.0552 19.7427 15.3297 19.4567 14.7702 18.8972C14.213 18.3389 13.9435 17.6317 13.9796 16.7291C14.0153 15.8354 14.3474 15.2312 14.944 14.8335L26.8639 6.88688L18.9173 18.8068ZM33.1667 16.5092L33.1667 16.5095L30.3333 16.5841H30.8333C30.8333 16.584 30.8333 16.5838 30.8333 16.5837C30.8333 15.544 30.7102 14.531 30.4633 13.5459C30.2395 12.6529 29.9155 11.7849 29.4922 10.9425L30.9086 8.69979C31.5275 9.76963 32.0318 10.8943 32.4219 12.0744C32.8924 13.4976 33.1409 14.9753 33.1667 16.5092ZM31.4166 25.1674L30.99 24.9067C30.9889 24.9086 30.9877 24.9104 30.9866 24.9123C30.9854 24.9143 30.9843 24.9164 30.9831 24.9184L31.4166 25.1674ZM3.01307 24.9118C2.31372 23.7003 1.77557 22.4152 1.39846 21.0555C1.02245 19.6997 0.833313 18.2654 0.833313 16.7508C0.833313 14.5103 1.25834 12.4191 2.10517 10.4718C2.95638 8.51447 4.11575 6.80318 5.58366 5.3342C7.05089 3.86589 8.76765 2.7067 10.7381 1.85653C12.7001 1.00997 14.7858 0.585217 17 0.584106L3.01307 24.9118Z" fill="#FFC334" stroke="#FFC334"/>
</svg>
